<svg xmlns="http://www.w3.org/2000/svg" xmlns:xlink="http://www.w3.org/1999/xlink" width="1440" height="469"><defs><path id="a" d="M0 0h1440v469H0z"/></defs><g fill="none" fill-rule="evenodd"><mask id="b" fill="#fff"><use xlink:href="#a"/></mask><use fill="#FFF" xlink:href="#a"/><g fill="#F2F3F4" fill-opacity=".53" fill-rule="nonzero" mask="url(#b)"><path d="m50.713 39.577 202.333-66.68.289-.096L262-38.791h-2.022v.095l-7.943 10.539L49.702 38.619l-.288.096-101.383 133.647L-68 177.631v1.342l17.33-5.749zM1.271 6.413-65 94.072v2.575L2.715 7.272 138-37.464h-4.043L1.56 6.318z"/><path d="M212-38.128h-4.056L24.126 22.722l-.289.096L-68 144.517v2.588L25.285 23.68zM1339.571 87.906l-.289.095-100.955 133.481-201.768 66.644-.288.096-100.956 133.48-201.623 66.645-.289.095-100.956 133.481-201.623 66.644-.288.096-100.956 133.48-201.623 66.645-.289.095-100.956 133.481-91.712 30.31v1.339l92.723-30.693.289-.096 100.956-133.48 201.623-66.74.289-.096 100.811-133.576 201.623-66.644.289-.096 100.956-133.48 201.622-66.645.289-.096 101.1-133.289 201.623-66.644.289-.096 100.956-133.48 201.767-66.645.289-.095L1589-39.455h-2.022l-45.784 60.716zM177.375 122.905l-.288.095L76.565 256.18-65 303.117v1.336l142.573-47.224.288-.095 100.522-133.18L379.137 57.46l.288-.095L451-37.464h-2.016l-70.855 93.779zM124.7 88.677l-.288.095L23.597 221.773-68 251.996v1.335l92.605-30.509.288-.095L125.708 89.725l201.485-66.357.288-.096L374-38.128h-2.16l-45.799 60.447z"/><path d="m354.549 39.136-201.551 66.58-.288.095L51.862 239.257-65 277.888v1.336l117.872-38.918.289-.095L154.008 106.86l201.551-66.58.289-.095L415-38.032h-2.164v-.096zM.102 607.186l101.213-133.692 202.138-66.703.289-.095 101.213-133.693 202.137-66.798.29-.096L708.595 72.417 910.732 5.619l.289-.096L945-39.455h-2.169v.095L909.575 4.662 707.438 71.46l-.289.096-101.213 133.692-202.138 66.798-.289.096-101.213 133.692-202.137 66.799-.29.095L-1.344 606.42-68 628.431v1.34l67.813-22.489zm75.61 49.418 101.104-133.589 201.775-66.651.289-.096 101.104-133.589 201.775-66.651.289-.096 101.104-133.589 201.775-66.651.289-.095L1057-39.455h-2.167L983.772 54.64l-201.775 66.651-.289.096-101.104 133.589-201.775 66.747-.289.095-101.104 133.589-201.775 66.651-.289.096L74.268 655.743-68 702.791v1.339l143.423-47.431z"/><path d="m200.692 139.287-.288.096L99.392 272.518-68 327.681v1.337l168.546-55.45.289-.095 100.868-133.041 201.735-66.424.289-.096L488-37.464h-2.02L402.284 72.862zM50.327 839.738l201.836-66.616.289-.095 100.99-133.519 201.691-66.615.289-.096 100.99-133.518 201.691-66.616.289-.095L959.381 239.05l201.691-66.616.289-.095 100.99-133.519 201.691-66.615.289-.096L1473-39.455h-1.878v.095l-7.946 10.609-201.691 66.616-.289.095-100.99 133.518-201.836 66.616-.289.096-100.99 133.518-201.835 66.615-.289.096-101.135 133.422-201.691 66.712-.289.095-100.99 133.518-201.691 66.616-.288.096-100.99 133.518L-68 977.652v1.338l17.337-5.734zm-75.62-648.957L76.044 56.64 278.43-10.334l.289-.096L300-38.791h-2.027l-20.557 27.403L75.031 55.586l-.29.096-101.337 134.14L-68 203.524v1.341l42.417-13.989z"/><path d="M-.473 207.022 100.169 73.909 301.021 7.448l.288-.096L335-37.464h-2.016L299.869 6.399 99.017 72.956l-.288.095L-1.769 206.164-68 228.095v1.335l67.239-22.312zm176.566 116.175.288-.095 100.925-133.265 201.56-66.538.289-.095L580.079-10.062 665-38.128h-4.037l-82.181 27.112-.289.095-100.924 133.266-201.561 66.537-.288.095-100.925 133.266-201.272 66.537-.288.096L-68 443.289v2.578l42.532-56.132z"/><path d="m201.663 340.824.289-.096 101.051-133.254 201.815-66.628.288-.095L606.158 7.4 742-37.464h-3.898v.096L605.292 6.541l-.289.096-101.051 133.254-201.815 66.533-.288.095-101.052 133.35-201.959 66.628-.288.095L-68 494.411v2.577l67.849-89.537zM-24.967-10.789-66 43.6v2.59l42.333-56.116L61-38.128h-4.046l-81.777 27.243zm885.014 183.423-.289.096-101.079 133.495-201.867 66.652-.29.095-101.078 133.496-201.868 66.652-.289.095L152.208 706.71l-202.012 66.557-.29.095L-66 794.496v2.582l17.353-22.855 201.867-66.652.29-.096L254.588 573.98l201.868-66.652.289-.095 101.079-133.496 201.868-66.651.289-.096 101.078-133.495 201.868-66.557.289-.095 101.079-133.495L1199-38.128h-4.049l-31.668 10.519-.29.096-101.078 133.495z"/><path d="m807.569 139.124-.289.096-100.961 133.393-201.78 66.505-.289.095-100.961 133.393-201.635 66.601-.289.095L100.403 672.6-67 728.021v1.337l168.414-55.612.289-.095 100.962-133.393L404.3 473.562l.289-.096L505.55 340.073l201.635-66.601.289-.095L808.58 139.984l201.635-66.601.289-.095L1095-38.128h-2.167l-83.629 110.651zM1187.524-12.22l-100.912 133.5-201.536 66.702-.288.096-100.913 133.404-201.68 66.607-.288.095-100.913 133.405-201.535 66.606-.289.096-101.057 133.404-201.68 66.702-.289.096L-65 842.963v2.58l42.588-56.285 201.68-66.607.289-.096 100.912-133.5 201.68-66.606.289-.096L583.35 388.949l201.68-66.607.289-.096 100.768-133.308 201.68-66.607.289-.096 100.912-133.404L1274-39.455h-4.042l-82.145 27.139z"/><path d="m834.639 154.491-.289.096-100.892 133.41-201.782 66.658-.29.095-100.891 133.41-201.494 66.562-.289.096-101.036 133.41L-65 751.92v1.339l193.833-63.979.289-.096 101.036-133.41 201.782-66.657.29-.096 101.035-133.41 201.783-66.562.289-.095 101.036-133.411 201.783-66.657.289-.095L1135-39.455h-2.168l-96.411 127.289zM1210.646 4.817l-101.101 133.485-201.626 66.743-.289.096-100.957 133.485-201.914 66.743-.289.096-100.957 133.581-201.77 66.743-.289.095-101.101 133.582-201.626 66.647-.289.095L-68 894.083v2.582l67.882-89.692 201.77-66.551.289-.096 101.102-133.581 201.77-66.743.289-.095 100.957-133.582 201.77-66.742.289-.096 100.957-133.581 201.77-66.743.288-.096L1212.235 5.486 1348-39.455h-4.333v.191L1210.935 4.721zm102.872 67.636-101.035 133.328-201.924 66.711h-.29L909.235 405.915 707.31 472.531l-.289.096-101.035 133.327-201.925 66.616-.289.096-101.034 133.423-201.925 66.616-.289.095L-.511 1006.128-67 1028.11v1.338l67.646-22.269.289-.096 101.034-133.327 201.925-66.52.289-.096 101.035-133.328 201.78-66.807.289-.095 101.035-133.328 201.925-66.616.289-.095 101.179-133.423 201.925-66.616.289-.096 101.034-133.327 201.925-66.616.289-.096L1551-38.128h-2.024l-33.244 43.965-201.925 66.52z"/><path d="m1236.381 21.172-101.104 133.496-201.774 66.653-.289.095-101.103 133.496-201.774 66.557-.289.096-101.104 133.496-201.773 66.652-.289.096-101.104 133.496-201.774 66.556-.289.096L-68 943.213v2.582l93.16-122.977 201.774-66.653.288-.095 101.104-133.496L530.1 555.921l.289-.095L631.492 422.33l201.919-66.557.289-.096 101.103-133.496 201.63-66.556.288-.096 100.96-133.496L1424-39.455h-4.044L1236.67 21.077z"/><path d="m1287.254 55.772-100.882 133.445-201.765 66.58-.289.095-101.027 133.35-201.766 66.58-.289.095-101.027 133.35-201.765 66.58-.289.095-101.027 133.35-201.621 66.58-.289.096-101.027 133.35L-67 1002.882v1.337l42.348-13.946.289-.096 101.027-133.35 201.765-66.579.289-.096 101.027-133.445 201.765-66.58.289-.095 100.883-133.351 201.765-66.579.289-.096 101.027-133.254 201.621-66.58.289-.095L1288.7 56.727l201.765-66.58.289-.095L1512-38.128h-2.023l-20.524 27.225-201.909 66.579zM732.117 87.95l-.289.096-101.081 133.628-202.018 66.718-.289.095-101.081 133.628-202.018 66.814-.289.095L23.826 622.652-68 652.996v1.34l92.983-30.727.289-.095 101.226-133.628 202.018-66.718.289-.096 101.081-133.627 202.018-66.718.289-.096L733.274 89.003l201.873-66.718.289-.096L982-39.455h-2.025l-45.84 60.687zm-98.701-66.628L532.464 155.127l-201.902 66.808-.29.095-101.096 133.71-202.047 66.807-.289.096L-65 544.197v2.585l93.286-123.278 201.903-66.807.289-.095 101.096-133.806 201.903-66.807.289-.096 101.096-133.71L821-39.455h-4.05L633.705 21.226zm-381.207 151.35-.288.096-100.646 133.124-201.149 66.419-.288.095L-66 393.496v2.577l17.278-22.808 201.149-66.419.288-.095 100.646-133.124 201.148-66.419.288-.096L555.443-26.012 590-37.464h-4.032l-31.533 10.498-.288.095-100.79 133.124zm-198.87 867.545 100.855-133.524 201.566-66.667.289-.095 101-133.525 201.855-66.762.289-.095 101-133.525 201.711-66.666.289-.096 100.855-133.429 201.711-66.666.289-.096 101-133.524 201.566-66.667.289-.095L1627-39.455h-2.023l-58.375 77.379-201.71 66.666-.289.096-101 133.524-201.566 66.667-.289.095-101 133.525-201.711 66.666-.289.096-100.855 133.429-201.711 66.666-.289.096-101 133.524-201.71 66.667-.289.095-101 133.525L-65 1077.903v1.339l118.05-38.929z"/><path d="M682.053 55.882 580.935 189.293l-201.946 66.658-.29.096-101.117 133.411-201.947 66.658-.289.096-101.118 133.411L-67 603.203v1.339l42.386-13.962.289-.096L76.793 457.168l201.946-66.658.289-.095 101.118-133.412 201.946-66.658.29-.095L683.499 56.838 885.446-9.819l.289-.096L907-38.128h-2.025l-20.542 27.257-202.091 66.657zM228.47 156.48l-.288.096-100.854 133.336L-65 353.574v1.336l193.482-63.948.289-.095L229.624 157.53l201.418-66.62.289-.096L528-37.464h-2.02L429.888 89.86zm528.974-51.881-.289.095L655.982 238.22l-202.055 66.714-.289.096-101.172 133.525-202.055 66.715-.29.096L49.094 638.891-68 677.561v1.34l118.251-38.957.29-.096 101.027-133.621 202.056-66.714.289-.096 101.172-133.525 202.055-66.715.29-.096 101.172-133.525 202.055-66.715.29-.096 59.053-78.2h-2.026l-58.475 77.339z"/><path d="M656.026 37.998 555.031 171.652 353.33 238.383l-.289.095-100.995 133.749-201.845 66.731-.29.096-100.995 133.653L-67 577.973v1.341l17.363-5.745L51.358 439.916l201.701-66.731.289-.096 100.995-133.653 201.701-66.731.289-.096L657.328 38.956l201.701-66.731.289-.096L868-39.455h-1.881l-7.958 10.627-201.845 66.731zm683.069 452.222-.289.095-100.999 133.486-201.708 66.695-.289.095-100.999 133.486-201.709 66.695-.289.095-100.998 133.486L446 1085.881h4.046l183.069-60.571.289-.096 100.999-133.485 201.564-66.6.289-.095 100.999-133.486 201.708-66.695.289-.095 100.999-133.486 201.709-66.695.289-.095L1634 303.244v-2.775l-93.196 123.151zm100.222-332.863-.289.096-100.883 133.411-201.909 66.609-.289.096-101.172 133.315-201.91 66.61-.289.095L731.549 691 529.64 757.61l-.289.096-101.028 133.41-201.909 66.61-.289.096L129 1085.881h2.023l96.547-127.199 201.91-66.61.289-.096 101.171-133.41 201.91-66.61.289-.096 101.172-133.41 201.909-66.61.289-.096 101.172-133.411 201.91-66.514.289-.095 101.171-133.411L1634 94.666v-1.338z"/><path d="m75.55 1058.629 100.999-133.584 201.708-66.648.289-.096 100.999-133.583 201.853-66.648.289-.096 100.999-133.583 201.708-66.648.289-.096 101.143-133.583 201.709-66.648.289-.096 100.999-133.583 201.708-66.648.289-.096L1632 2.489V-.284l-42.625 56.416-201.708 66.649-.289.095-100.999 133.583-201.709 66.649-.289.095-100.998 133.584-201.853 66.648-.289.095-100.999 133.584-201.709 66.744h-.433L377.101 857.441l-201.853 66.744-.289.095L73.96 1057.864-11 1085.881h4.046l82.215-27.157zm479.614-84.848 101.022-133.52 201.611-66.711.289-.096 101.022-133.519 201.467-66.521.289-.096 100.877-133.519 201.611-66.712.289-.095 100.878-133.52L1631 217.49v-1.338l-67.493 22.365-.289.095-100.877 133.52-201.611 66.711-.289.096-101.023 133.519-201.611 66.712-.289.096-101.022 133.519-201.611 66.712-.289.095-101.022 133.52-201.466 66.52-.289.096L318 1084.553h2.023l33.241-43.965 201.611-66.712z"/><path d="m530.536 958.561.289-.096 100.999-133.537 201.709-66.673.289-.096 100.999-133.537 201.853-66.769.289-.096 101.144-133.537 201.853-66.673.289-.096 100.999-133.537L1633 193.59v-1.339l-93.197 30.61-.289.096-100.854 133.537-201.854 66.674-.289.095-100.854 133.633-201.854 66.673-.289.096-100.999 133.538-201.853 66.673-.289.095-100.855 133.633-201.709 66.673-.289.096L281 1085.881h2.023l45.803-60.647z"/><path d="m505.627 941.871.289-.096 101.122-133.683 201.954-66.745.289-.096 100.977-133.778 201.954-66.746.289-.096 101.122-133.682 201.954-66.746.289-.095 101.122-133.683L1634 167.697v-1.339l-118.457 39.206-.289.096-100.832 133.683-201.955 66.745-.289.096-101.121 133.587-201.954 66.746-.289.095-101.122 133.683-201.954 66.746-.289.095-101.122 133.683-201.954 66.746-.289.095L243 1085.881h2.022l58.651-77.36zm100.534 66.721 101.166-133.533 201.899-66.766.289-.096 101.022-133.629 201.9-66.671.289-.095 101.022-133.533 201.899-66.671.289-.096 101.022-133.628 16.042-5.261v-1.34l-17.054 5.548-.289.096-101.166 133.533-201.755 66.767-.289.095-101.022 133.533-202.044 66.767-.289.095L908.07 807.336l-201.899 66.671-.289.096-101.022 133.533-201.9 66.766-.289.096-8.671 11.383h2.023l7.949-10.522 201.899-66.671z"/><path d="m580.885 991.867 101.09-133.705 201.89-66.852.289-.096 101.09-133.704 201.891-66.757.289-.095 101.09-133.705 201.89-66.757.289-.095 101.09-133.705L1633 242.72v-1.339l-42.229 14.059-.289.095-101.09 133.705-201.891 66.852-.289.096-101.09 133.609-201.89 66.756-.289.096-101.09 133.705-202.035 66.756-.289.096-101.09 133.704-201.891 66.757-.289.096L356 1085.881h2.025l20.68-27.162 201.891-66.757zm-175.807-117.84.289-.095L506.44 740.526l201.711-66.608.289-.095 101.073-133.406 201.856-66.608.289-.095 101.218-133.406 201.711-66.703.289-.096 101.073-133.406 201.856-66.607.289-.096L1634 52.281v-2.772l-17.496 22.935-201.712 66.608-.289.095-101.073 133.406-201.856 66.608-.289.096-101.073 133.406-201.711 66.703-.289.095-101.073 133.406-201.856 66.703-.289.096-101.073 133.406-201.856 66.607-.289.096-101.073 133.406L66 1084.553h4.049l31.666-10.321.289-.095L203.077 940.73zm75.052 50.982.289-.096 101.06-133.693 201.974-66.703.289-.095 101.204-133.693 201.974-66.799.289-.096 101.06-133.693 201.974-66.798.289-.096 101.06-133.693L1634 142.469v-1.339l-143.565 47.562-.289.096-100.915 133.693-201.974 66.799-.289.096-101.06 133.597-201.974 66.799-.289.095-101.06 133.693-201.974 66.703-.289.096-101.204 133.789-201.974 66.703-.289.095L205 1085.881h2.024l71.132-94.073z"/><path d="m457.314 907.46.288-.095L558.523 774.02l201.697-66.482.289-.095L861.43 574.098l201.552-66.577.289-.096 100.632-133.536 201.553-66.577.288-.095 100.921-133.345L1634 118.566v-1.337l-168.634 55.687-.289.096-100.921 133.345-201.264 66.577-.288.095-100.921 133.345-201.553 66.577-.289.096-100.92 133.345-201.697 66.577-.289.095-100.921 133.345-201.552 66.577-.289.096L170 1084.553h2.021l83.74-110.516zm199.823 133.152 101.154-133.445 202.02-66.675.289-.096 101.155-133.446 202.02-66.579.289-.096 101.01-133.445 202.02-66.675.289-.096L1634 352.274v-2.675l-68.063 89.696-201.875 66.675-.289.096-101.154 133.35-202.02 66.675-.289.095-101.155 133.446-201.875 66.675-.289.095-101.155 133.446L520 1084.553h4.046l132.802-43.845z"/><path d="m683.525 1058.631 101.114-133.475 201.796-66.642.289-.096 100.97-133.475 201.795-66.642.289-.096 100.97-133.475 201.795-66.642.289-.096L1634 403.493v-2.773l-42.468 56.316-201.795 66.642-.289.096-100.97 133.475-201.796 66.642-.288.096-100.97 133.571-201.94 66.642-.289.095-100.97 133.476-85.225 28.11h4.045l82.191-27.154z"/><path d="m1008.036 873.848.289-.095 101.104-133.58 201.917-66.695.289-.095 101.103-133.581 202.062-66.694.29-.096 15.91-21.147v-2.679l-17.212 22.965-201.917 66.695-.29.095-101.103 133.58-201.917 66.695-.29.095-101.103 133.581-202.062 66.694-.289.096-101.103 133.484L669 1084.553h4.05l31.676-10.334.289-.096 101.104-133.58z"/></g></g></svg>